solid 
 facet normal  0.000000e+00 -0.000000e+00 -1.000000e+00
   outer loop
     vertex -8.603760e-01  4.726001e-01  0.000000e+00
     vertex -8.603760e-01  3.966001e-01  0.000000e+00
     vertex -9.403760e-01  3.966001e-01  0.000000e+00
   endloop
 endfacet
 facet normal -0.000000e+00  0.000000e+00 -1.000000e+00
   outer loop
     vertex -8.603760e-01  4.726001e-01  0.000000e+00
     vertex -9.403760e-01  3.966001e-01  0.000000e+00
     vertex -9.403760e-01  4.726001e-01  0.000000e+00
   endloop
 endfacet
 facet normal  0.000000e+00  0.000000e+00 -1.000000e+00
   outer loop
     vertex -7.711720e-01  4.023968e-01  0.000000e+00
     vertex -8.603760e-01  2.346001e-01  0.000000e+00
     vertex -8.603760e-01  3.945925e-01  0.000000e+00
   endloop
 endfacet
 facet normal  0.000000e+00 -0.000000e+00 -1.000000e+00
   outer loop
     vertex -7.711720e-01  4.274045e-01  0.000000e+00
     vertex -7.711720e-01  4.044045e-01  0.000000e+00
     vertex -8.603760e-01  3.966001e-01  0.000000e+00
   endloop
 endfacet
 facet normal  0.000000e+00  0.000000e+00 -1.000000e+00
   outer loop
     vertex -8.603760e-01  6.346001e-01  0.000000e+00
     vertex -7.711720e-01  4.296465e-01  0.000000e+00
     vertex -8.603760e-01  4.748422e-01  0.000000e+00
   endloop
 endfacet
 facet normal  0.000000e+00  0.000000e+00 -1.000000e+00
   outer loop
     vertex -2.603760e-01  2.346001e-01  0.000000e+00
     vertex -7.711720e-01  4.023968e-01  0.000000e+00
     vertex -7.711720e-01  4.044045e-01  0.000000e+00
   endloop
 endfacet
 facet normal  0.000000e+00  0.000000e+00 -1.000000e+00
   outer loop
     vertex -2.603760e-01  2.346001e-01  0.000000e+00
     vertex -7.711720e-01  4.274045e-01  0.000000e+00
     vertex -7.711720e-01  4.296465e-01  0.000000e+00
   endloop
 endfacet
 facet normal  0.000000e+00  0.000000e+00 -1.000000e+00
   outer loop
     vertex -2.603760e-01  2.346001e-01  0.000000e+00
     vertex -7.711720e-01  4.044045e-01  0.000000e+00
     vertex -7.711720e-01  4.274045e-01  0.000000e+00
   endloop
 endfacet
 facet normal -0.000000e+00  0.000000e+00 -1.000000e+00
   outer loop
     vertex -2.603760e-01  2.346001e-01  0.000000e+00
     vertex -8.603760e-01  2.346001e-01  0.000000e+00
     vertex -7.711720e-01  4.023968e-01  0.000000e+00
   endloop
 endfacet
 facet normal -0.000000e+00  0.000000e+00 -1.000000e+00
   outer loop
     vertex -2.603760e-01  6.346001e-01  0.000000e+00
     vertex -7.711720e-01  4.296465e-01  0.000000e+00
     vertex -8.603760e-01  6.346001e-01  0.000000e+00
   endloop
 endfacet
 facet normal  0.000000e+00 -0.000000e+00 -1.000000e+00
   outer loop
     vertex -2.603760e-01  6.346001e-01  0.000000e+00
     vertex -2.603760e-01  2.346001e-01  0.000000e+00
     vertex -7.711720e-01  4.296465e-01  0.000000e+00
   endloop
 endfacet
 facet normal -0.000000e+00  0.000000e+00 -1.000000e+00
   outer loop
     vertex -7.711720e-01  4.274045e-01  0.000000e+00
     vertex -8.603760e-01  3.966001e-01  0.000000e+00
     vertex -8.603760e-01  4.726001e-01  0.000000e+00
   endloop
 endfacet
endsolid
