solid 
 facet normal -1.000000e+00  0.000000e+00  0.000000e+00
   outer loop
     vertex -9.403760e-01  4.726001e-01  0.000000e+00
     vertex -9.403760e-01  3.966001e-01  2.000000e-02
     vertex -9.403760e-01  4.726001e-01  2.000000e-02
   endloop
 endfacet
 facet normal -1.000000e+00  0.000000e+00  0.000000e+00
   outer loop
     vertex -9.403760e-01  4.726001e-01  0.000000e+00
     vertex -9.403760e-01  3.966001e-01  0.000000e+00
     vertex -9.403760e-01  3.966001e-01  2.000000e-02
   endloop
 endfacet
endsolid
