solid 
 facet normal  4.519566e-01  8.920399e-01  0.000000e+00
   outer loop
     vertex -7.711720e-01  4.274045e-01  2.000000e-02
     vertex -8.603760e-01  4.726001e-01  0.000000e+00
     vertex -8.603760e-01  4.726001e-01  2.000000e-02
   endloop
 endfacet
 facet normal  4.519566e-01  8.920399e-01  0.000000e+00
   outer loop
     vertex -7.711720e-01  4.274045e-01  2.000000e-02
     vertex -7.711720e-01  4.274045e-01  0.000000e+00
     vertex -8.603760e-01  4.726001e-01  0.000000e+00
   endloop
 endfacet
 facet normal -8.715574e-02  9.961947e-01  0.000000e+00
   outer loop
     vertex -7.711720e-01  4.023968e-01  2.000000e-02
     vertex -8.603760e-01  3.945925e-01  0.000000e+00
     vertex -8.603760e-01  3.945925e-01  2.000000e-02
   endloop
 endfacet
 facet normal -8.715574e-02  9.961947e-01  0.000000e+00
   outer loop
     vertex -7.711720e-01  4.023968e-01  2.000000e-02
     vertex -7.711720e-01  4.023968e-01  0.000000e+00
     vertex -8.603760e-01  3.945925e-01  0.000000e+00
   endloop
 endfacet
 facet normal  8.715574e-02 -9.961947e-01  0.000000e+00
   outer loop
     vertex -8.603760e-01  3.966001e-01  2.000000e-02
     vertex -7.711720e-01  4.044045e-01  0.000000e+00
     vertex -7.711720e-01  4.044045e-01  2.000000e-02
   endloop
 endfacet
 facet normal  8.715574e-02 -9.961947e-01  0.000000e+00
   outer loop
     vertex -8.603760e-01  3.966001e-01  2.000000e-02
     vertex -8.603760e-01  3.966001e-01  0.000000e+00
     vertex -7.711720e-01  4.044045e-01  0.000000e+00
   endloop
 endfacet
 facet normal -4.519566e-01 -8.920399e-01  0.000000e+00
   outer loop
     vertex -8.603760e-01  4.748422e-01  2.000000e-02
     vertex -7.711720e-01  4.296465e-01  0.000000e+00
     vertex -7.711720e-01  4.296465e-01  2.000000e-02
   endloop
 endfacet
 facet normal -4.519566e-01 -8.920399e-01 -0.000000e+00
   outer loop
     vertex -8.603760e-01  4.748422e-01  2.000000e-02
     vertex -8.603760e-01  4.748422e-01  0.000000e+00
     vertex -7.711720e-01  4.296465e-01  0.000000e+00
   endloop
 endfacet
 facet normal  0.000000e+00  1.000000e+00 -0.000000e+00
   outer loop
     vertex -8.603760e-01  4.726001e-01  0.000000e+00
     vertex -9.403760e-01  4.726001e-01  2.000000e-02
     vertex -8.603760e-01  4.726001e-01  2.000000e-02
   endloop
 endfacet
 facet normal  0.000000e+00  1.000000e+00  0.000000e+00
   outer loop
     vertex -8.603760e-01  4.726001e-01  0.000000e+00
     vertex -9.403760e-01  4.726001e-01  0.000000e+00
     vertex -9.403760e-01  4.726001e-01  2.000000e-02
   endloop
 endfacet
 facet normal -1.000000e+00  0.000000e+00  0.000000e+00
   outer loop
     vertex -7.711720e-01  4.044045e-01  0.000000e+00
     vertex -7.711720e-01  4.023968e-01  2.000000e-02
     vertex -7.711720e-01  4.044045e-01  2.000000e-02
   endloop
 endfacet
 facet normal -1.000000e+00  0.000000e+00  0.000000e+00
   outer loop
     vertex -7.711720e-01  4.044045e-01  0.000000e+00
     vertex -7.711720e-01  4.023968e-01  0.000000e+00
     vertex -7.711720e-01  4.023968e-01  2.000000e-02
   endloop
 endfacet
 facet normal -1.000000e+00  0.000000e+00  0.000000e+00
   outer loop
     vertex -7.711720e-01  4.296465e-01  0.000000e+00
     vertex -7.711720e-01  4.274045e-01  2.000000e-02
     vertex -7.711720e-01  4.296465e-01  2.000000e-02
   endloop
 endfacet
 facet normal -1.000000e+00  0.000000e+00  0.000000e+00
   outer loop
     vertex -7.711720e-01  4.296465e-01  0.000000e+00
     vertex -7.711720e-01  4.274045e-01  0.000000e+00
     vertex -7.711720e-01  4.274045e-01  2.000000e-02
   endloop
 endfacet
 facet normal -6.938894e-16 -1.000000e+00  0.000000e+00
   outer loop
     vertex -9.403760e-01  3.966001e-01  2.000000e-02
     vertex -8.603760e-01  3.966001e-01  0.000000e+00
     vertex -8.603760e-01  3.966001e-01  2.000000e-02
   endloop
 endfacet
 facet normal -6.938894e-16 -1.000000e+00 -0.000000e+00
   outer loop
     vertex -9.403760e-01  3.966001e-01  2.000000e-02
     vertex -9.403760e-01  3.966001e-01  0.000000e+00
     vertex -8.603760e-01  3.966001e-01  0.000000e+00
   endloop
 endfacet
endsolid
