solid 
 facet normal  1.000000e+00  0.000000e+00  0.000000e+00
   outer loop
     vertex -2.603760e-01  6.346001e-01  2.000000e-02
     vertex -2.603760e-01  2.346001e-01  2.000000e-02
     vertex -2.603760e-01  2.346001e-01  0.000000e+00
   endloop
 endfacet
 facet normal  1.000000e+00  0.000000e+00  0.000000e+00
   outer loop
     vertex -2.603760e-01  6.346001e-01  2.000000e-02
     vertex -2.603760e-01  2.346001e-01  0.000000e+00
     vertex -2.603760e-01  6.346001e-01  0.000000e+00
   endloop
 endfacet
endsolid
